<svg width="20" height="20" viewBox="0 0 20 20" fill="none" xmlns="http://www.w3.org/2000/svg">
<path d="M3.625 8.12488C4.66053 8.12488 5.5 8.96434 5.5 9.99988C5.5 11.0354 4.66053 11.8749 3.625 11.8749C2.58947 11.8749 1.75 11.0354 1.75 9.99988C1.75 8.96434 2.58947 8.12488 3.625 8.12488Z" fill="#333333"/>
<path d="M10.002 8.12488C11.0375 8.12488 11.877 8.96434 11.877 9.99988C11.877 11.0354 11.0375 11.8749 10.002 11.8749C8.96642 11.8749 8.12695 11.0354 8.12695 9.99988C8.12695 8.96434 8.96642 8.12488 10.002 8.12488Z" fill="#333333"/>
<path d="M16.3789 8.12488C17.4144 8.12488 18.2539 8.96434 18.2539 9.99988C18.2539 11.0354 17.4144 11.8749 16.3789 11.8749C15.3434 11.8749 14.5039 11.0354 14.5039 9.99988C14.5039 8.96434 15.3434 8.12488 16.3789 8.12488Z" fill="#333333"/>
</svg>
